<svg width="118" height="66" viewBox="0 0 118 66" fill="none" xmlns="http://www.w3.org/2000/svg"><path d="M47.0175 56.0809H47.8841V48.0156H47.2139v7.1178H47.1792l-4.2406-7.1178H42.0719v8.0653H42.7421V48.9631H42.7768l4.2407 7.1178z" fill="#fff" fill-opacity=".7"/><path d="M53.2707 56.0809v-.5777H52.0921V48.5933h1.1786v-.5777H50.2202v.5777h1.1786v6.9099H50.2202v.5777h3.0505z" fill="#fff" fill-opacity=".7"/><path d="M60.7437 48.628V48.0156h-6.101V48.628h2.7039v7.4529H58.0399V48.628H60.7437z" fill="#fff" fill-opacity=".7"/><path d="M68.505 56.2196C69.8107 56.2196 70.7583 55.5148 71.232 54.417L70.6658 54.0819C70.3192 55.0063 69.5797 55.5956 68.505 55.5956 67.0029 55.5956 66.1016 54.5095 66.1016 52.5336V51.6207C66.1016 49.6333 67.0029 48.5009 68.505 48.5009 69.5219 48.5009 70.2498 49.0555 70.608 49.9337L71.1742 49.5986C70.6889 48.5356 69.7876 47.8769 68.505 47.8769 66.5176 47.8769 65.3621 49.356 65.3621 52.0714c0 2.7269 1.1555 4.1482 3.1429 4.1482z" fill="#fff" fill-opacity=".7"/><path d="M78.04 56.0809v-.5777H77.2427V52.002C77.2427 50.7541 76.4686 50.0262 75.0935 50.0262 74.0189 50.0262 73.3603 50.5346 73.0367 51.2163L73.4527 51.563C73.7763 50.9505 74.2847 50.6039 75.0704 50.6039 76.0757 50.6039 76.5841 51.1008 76.5841 52.0714V52.7647H75.2206C73.5105 52.7647 72.8172 53.4233 72.8172 54.4748 72.8172 55.5725 73.5336 56.2196 74.77 56.2196 75.6944 56.2196 76.2952 55.8036 76.561 55.145H76.6188V55.353C76.6534 55.7921 76.8614 56.0809 77.3698 56.0809H78.04zM74.8624 55.6534C74.0536 55.6534 73.5105 55.2837 73.5105 54.6019V54.3246C73.5105 53.666 74.0189 53.2615 75.1975 53.2615h1.3866v1.0978C76.5841 55.1565 75.8215 55.6534 74.8624 55.6534z" fill="#fff" fill-opacity=".7"/><path d="M81.4296 56.0809v-.5777H80.5168V47.5303H79.8581v7.8342C79.8581 55.7921 80.1123 56.0809 80.5861 56.0809H81.4296z" fill="#fff" fill-opacity=".7"/><path d="M83.6906 48.5587C84.0026 48.5587 84.1412 48.3854 84.1412 48.1427V48.0271C84.1412 47.7845 84.0026 47.6112 83.6906 47.6112S83.2399 47.7845 83.2399 48.0271V48.1427C83.2399 48.3854 83.3786 48.5587 83.6906 48.5587zM83.367 56.0809H84.0257V50.1648H83.367v5.9161z" fill="#fff" fill-opacity=".7"/><path d="M88.7189 56.2196C89.805 56.2196 90.5214 55.7112 90.9028 54.9254L90.4175 54.6019C90.0824 55.2605 89.5277 55.6303 88.7189 55.6303 87.5172 55.6303 86.8701 54.7868 86.8701 53.5389V52.7069C86.8701 51.459 87.5172 50.6155 88.7189 50.6155 89.493 50.6155 89.9899 50.9737 90.2672 51.6092L90.8219 51.3319C90.4752 50.5577 89.805 50.0262 88.7189 50.0262 87.1012 50.0262 86.1652 51.1701 86.1652 53.1229 86.1652 55.0757 87.1012 56.2196 88.7189 56.2196z" fill="#fff" fill-opacity=".7"/><path d="M96.5311 56.0809H97.1897V50.1648H96.5311V54.313C96.5311 55.2028 95.7569 55.6303 94.9365 55.6303c-.982199999999992.0-1.5252-.5777-1.5252-1.791V50.1648H92.7526v3.8016c0 1.4444.751099999999994 2.2532 2.0106 2.2532C95.78 56.2196 96.2653 55.6996 96.4849 55.145H96.5311V56.0809z" fill="#fff" fill-opacity=".7"/><path d="M102.002 56.0809v-.5777H100.754V50.7426H102.095V50.1648H100.754V48.5125H100.153v1.2017C100.153 50.0493 100.061 50.1648 99.7373 50.1648H99.0671V50.7426H100.096V55.353C100.096 55.7921 100.35 56.0809 100.823 56.0809h1.179z" fill="#fff" fill-opacity=".7"/><path d="M46.8043.43924C46.5228 1.7231 46.8948 5.05753 47.222 6.30092 47.2357 6.34364 47.2954 6.44437 47.4254 6.50553 47.5879 6.58197 47.8721 6.6067 48.075 6.59321S49.6179 6.88325 48.4781 5.25763C47.2733 3.55782 46.8451.5674 46.8043.43924z" fill="#e8e8e8"/><path d="M49.196 20.5794C49.4775 19.2955 49.1055 15.9611 48.7783 14.7177 48.7646 14.675 48.7049 14.5743 48.5749 14.5131 48.4124 14.4367 48.1282 14.4119 47.9253 14.4254S46.3824 14.1354 47.5222 15.761c1.2048 1.6998 1.633 4.6902 1.6738 4.8184z" fill="#e8e8e8"/><path d="M40.2307 16.5306c1.236-.3629 3.9169-2.2962 4.8262-3.1863C45.087 13.3116 45.1447 13.2096 45.1348 13.0636 45.1224 12.881 45.0074 12.614 44.8985 12.4383 44.7896 12.2625 44.4073 10.9137 43.5599 12.7168 42.6801 14.6138 40.3211 16.4325 40.2307 16.5306z" fill="#e8e8e8"/><path d="M39.2587 5.67701C40.104 6.66848 42.9518 8.33315 44.1252 8.79835 44.1669 8.81237 44.2816 8.82264 44.4067 8.75152 44.563 8.66263 44.7505 8.44275 44.8599 8.26733 44.9692 8.0919 46.0008 7.16559 44.0457 7.14488 41.9937 7.13402 39.3838 5.71908 39.2587 5.67701z" fill="#e8e8e8"/><path d="M56.7084 15.0636C55.8444 14.0891 52.9655 12.4815 51.7835 12.0397 51.7415 12.0265 51.6266 12.0185 51.5029 12.0921 51.3483 12.1841 51.165 12.4077 51.059 12.5852 50.953 12.7628 49.9393 13.7095 51.8944 13.6913 53.9462 13.6613 56.5825 15.024 56.7084 15.0636z" fill="#e8e8e8"/><path d="M56.3313 5.22979c-1.2788.13732-4.2476 1.56362-5.2944 2.27824C51.0017 7.53489 50.9275 7.62499 50.9124 7.77059 50.8935 7.95259 50.9615 8.23603 51.0388 8.42846 51.1161 8.6209 51.2633 10.0172 52.4044 8.39259c1.189-1.71144 3.8213-3.08223 3.9269-3.1628z" fill="#e8e8e8"/><path d="M14.4932 42.9139C5.97475 55.2629 1.28171 59.1572.0 59.5608c1.67608-1.8161 7.1973-10.4926 9.16917-13.5193 1.97183-3.0267 3.15493-4.6409 5.12683-7.4658 1.5775-2.26 4.0752-4.8428 5.1269-5.8517C18.1411 33.3294 11.7326 34.8427 12.9157 31.1098c.9465-2.9863 5.9813-4.1365 8.3804-4.3383C17.5496 27.5786 15.8735 28.6884 15.2819 29.6973 14.4932 31.9169 18.8313 29.8991 19.8172 29.4955 20.8032 29.092 25.3384 26.8724 30.5639 22.7359c4.1803-3.3092 8.4461-5.2799 10.0565-5.8516-2.2677 1.4125-14.3946 12.2077-13.7045 11.905C27.6061 28.4867 31.8456 28.6884 32.5357 32.4214 33.0879 35.4077 30.531 40.1226 29.1836 42.1068 30.0709 39.6854 30.8597 36.5579 30.5639 34.0356c-.2958-2.5222-5.4226-6.5578-16.0707 8.8783z" fill="#e8e8e8"/><path d="M22.9722 23.0386c0 1.4487-1.1477 2.6232-2.5634 2.6232s-2.5634-1.1745-2.5634-2.6232c0-1.4487 1.1477-2.6231 2.5634-2.6231s2.5634 1.1744 2.5634 2.6231z" fill="#e8e8e8"/><path d="M51.5733 3.06237C50.1536 3.54664 49.4043 5.41647 49.2071 6.29085 49.1091 6.64321 49.8144 7.11027 50.1839 7.29975 50.3079 7.36338 50.7846 7.60242 50.686 6.99708 50.2127 5.46355 51.0803 3.73497 51.5733 3.06237z" fill="#e8e8e8"/><path d="M55.8307 10.2008C54.7019 9.19531 52.7473 9.4845 51.9111 9.75478 51.5648 9.84741 51.5298 10.7063 51.558 11.1282 51.5674 11.2699 51.6083 11.8115 52.0678 11.4171c1.0505-1.196 2.9463-1.3092 3.7629-1.2163z" fill="#e8e8e8"/><path d="M52.1026 17.8106C52.515 16.3385 51.4315 14.6488 50.8382 13.988 50.6096 13.7061 49.8344 14.0373 49.4727 14.242 49.3513 14.3107 48.8891 14.5778 49.4328 14.8369 50.9364 15.3045 51.8392 17.0142 52.1026 17.8106z" fill="#e8e8e8"/><path d="M44.2683 17.8923C45.6919 17.4201 46.4564 15.5567 46.6607 14.684 46.7615 14.3325 46.06 13.8595 45.6921 13.6669 45.5685 13.6022 45.0939 13.3591 45.1875 13.9653 45.6483 15.5027 44.7667 17.2239 44.2683 17.8923z" fill="#e8e8e8"/><path d="M40.1275 10.4534C41.1308 11.5896 43.1052 11.5413 43.9669 11.3751 44.3216 11.3255 44.4566 10.477 44.4778 10.0547 44.485 9.91284 44.5076 9.37019 44.0054 9.70559 42.8228 10.7647 40.9274 10.6454 40.1275 10.4534z" fill="#e8e8e8"/><path d="M44.0565 3.06243C43.6275 4.52958 44.6919 6.23189 45.2778 6.89965 45.5032 7.18423 46.2821 6.86217 46.646 6.66175 46.7682 6.59444 47.2334 6.33279 46.6926 6.06735 45.1943 5.58203 44.3109 3.86185 44.0565 3.06243z" fill="#e8e8e8"/><path d="M41.6511 32.002v5.9453c0 2.3121 1.1768 3.67 3.6017 3.67 1.3908.0 2.104-.642299999999999 2.104-1.6515V39.085H47.2677C46.8932 39.3235 46.3048 39.4336 45.5381 39.4336 44.5753 39.4336 44.0225 38.9382 44.0225 37.6537V33.7819h1.9079C46.911 33.7819 47.3568 33.1213 47.3568 32.6075V31.5983H44.0225V29.3596H43.4698C43.0953 29.3596 42.6674 29.6532 42.3465 30.0385 41.8294 30.6624 41.6511 31.0294 41.6511 32.002z" fill="#e8e8e8"/><path d="M56.3304 38.1308V35.8554c0-3.413-1.9257-4.4406-4.0653-4.4406-2.532.0-3.4948 1.3212-3.4948 2.4221V34.626H48.8595C49.2161 34.1672 50.1789 33.4883 51.9085 33.4883c1.4264.0 2.0683.421999999999997 2.0683 1.8166V35.4334H53.1388c-3.5305.0-4.7786 1.3395-4.7786 3.1011.0 1.8166 1.5691 3.1378 3.8514 3.1378H52.693c2.1396.0 3.6374-1.4496 3.6374-3.5415zM53.9946 38.1492c0 1.0092-.499200000000002 1.523-1.5334 1.523C51.4092 39.6722 50.803 39.2134 50.803 38.4427 50.803 37.6354 51.32 37.195 53.1388 37.195H53.9946v.9542z" fill="#e8e8e8"/><path d="M58.3149 32.002v5.9453c0 2.3121 1.1768 3.67 3.6017 3.67 1.3908.0 2.104-.642299999999999 2.104-1.6515V39.085H63.9315C63.557 39.3235 62.9686 39.4336 62.2019 39.4336 61.2391 39.4336 60.6863 38.9382 60.6863 37.6537V33.7819h1.9079C63.5748 33.7819 64.0206 33.1213 64.0206 32.6075V31.5983H60.6863V29.3596H60.1336C59.7591 29.3596 59.3312 29.6532 59.0103 30.0385 58.4932 30.6624 58.3149 31.0294 58.3149 32.002z" fill="#e8e8e8"/><path d="M74.0105 41.5072V35.7086C74.0105 32.9011 72.5484 31.3781 70.07 31.3781 69.1607 31.3781 68.3404 32.1121 67.9838 32.6993c0-.880800000000001.0-2.8259.0-2.8259C67.9838 28.9559 67.4311 28.2953 66.29 28.2953H65.5411V39.8557c0 1.0092.517099999999999 1.6515 1.6404 1.6515H67.966V35.8921C67.966 34.1489 68.9467 33.5617 69.6956 33.5617 70.7476 33.5617 71.6034 34.2039 71.6034 35.8187v4.037C71.6034 40.92 72.2275 41.5072 73.226 41.5072H74.0105z" fill="#e8e8e8"/><path d="M84.1267 32.7727C84.1267 31.9653 83.8235 31.5983 83.0033 31.5983H81.987C81.6304 34.0755 80.7924 36.6995 79.883 38.5528 78.8667 36.516 78.3853 34.6076 78.0465 32.7727 77.9573 32.2405 77.4403 31.5983 76.6201 31.5983H75.3363C75.5502 34.2773 77.1906 38.5895 78.4922 40.6264 78.9737 41.3604 79.3481 41.6173 80.0613 41.6173h.4636C81.5947 40.1126 82.6646 37.7271 83.3065 35.9105 83.8949 34.259 84.1267 33.0663 84.1267 32.7727z" fill="#e8e8e8"/><path d="M93.0882 38.1308V35.8554c0-3.413-1.9256-4.4406-4.06529999999999-4.4406C86.491 31.4148 85.5282 32.736 85.5282 33.8369V34.626H85.6173C85.9739 34.1672 86.9368 33.4883 88.6663 33.4883 90.0927 33.4883 90.7346 33.9103 90.7346 35.3049V35.4334H89.8966C86.3662 35.4334 85.118 36.7729 85.118 38.5345 85.118 40.3511 86.6871 41.6723 88.9694 41.6723H89.4508c2.13970000000001.0 3.6374-1.4496 3.6374-3.5415zM90.7525 38.1492c0 1.0092-.499299999999991 1.523-1.5335 1.523C88.167 39.6722 87.5608 39.2134 87.5608 38.4427 87.5608 37.6354 88.0779 37.195 89.8966 37.195H90.7525v.9542z" fill="#e8e8e8"/><path d="M97.6581 30.3688C97.6581 29.011 97.0519 28.277 96.1247 28.277 95.3223 28.277 94.734 28.8825 94.734 29.6348 94.734 30.2037 94.9479 30.4239 95.2154 30.6991 95.4115 30.901 95.5007 31.1762 95.5007 31.5249 95.5007 32.057 95.1619 32.9562 94.6805 33.4149V33.525H95.1619c1.3729.0 2.4962-1.5414 2.4962-3.1562z" fill="#e8e8e8"/><path d="M107.942 40.2777V39.3602h-5.723C102.415 39.0299 102.967 38.4978 103.378 38.1675l1.89-1.523C107.122 35.1398 107.817 34.314 107.817 32.4424c0-2.0185-1.729-3.725-4.083-3.725-3.04899999999999.0-4.1365 1.4679-4.1365 2.9359v.8992H99.6866C100.489 31.4331 101.505 30.9193 103.288 30.9193c1.355.0 2.122.715700000000002 2.122 1.8534C105.41 33.3232 105.232 33.9104 104.572 34.4608L101.719 36.9014C99.8293 38.5161 99.4192 39.4336 99.4192 40.2594 99.4192 40.9567 99.9541 41.5072 100.649 41.5072H106.302C107.282 41.5072 107.942 41.0668 107.942 40.2777z" fill="#e8e8e8"/><path d="M118 40.2777V39.3602h-5.724C112.473 39.0299 113.025 38.4978 113.435 38.1675l1.89-1.523c1.855-1.5047 2.55-2.3305 2.55-4.2021.0-2.0185-1.729-3.725-4.083-3.725-3.04900000000001.0-4.137 1.4679-4.137 2.9359v.8992H109.745C110.547 31.4331 111.563 30.9193 113.346 30.9193 114.701 30.9193 115.468 31.635 115.468 32.7727 115.468 33.3232 115.29 33.9104 114.63 34.4608L111.777 36.9014c-1.89 1.6147-2.3 2.5322-2.3 3.358C109.477 40.9567 110.012 41.5072 110.707 41.5072H116.36C117.34 41.5072 118 41.0668 118 40.2777z" fill="#e8e8e8"/></svg>